<?xml version="1.0" encoding="iso-8859-1"?><!-- Generator: Adobe Illustrator 19.2.0, SVG Export Plug-In . SVG Version: 6.00 Build 0)  --><svg xmlns="http://www.w3.org/2000/svg" xmlns:xlink="http://www.w3.org/1999/xlink" viewBox="0 0 24 24" width="96px" height="96px"><g><path d="M18.952,5.421c1.498-0.205,0.898-1.496-0.202-1.359c-0.729,0.164-1.124,0.711-1.423,0.915c0.339-0.597,0.527-1.123,1.083-1.887s-0.885-1.59-1.534-0.509c-0.354,0.771-0.367,0.734-0.736,1.648c-0.199,0.493-0.412,0.539-0.63,0.09c-0.262-0.447,0.024-0.752-0.386-1.092c-0.656-0.546-1.4,0.126-1,0.743s0.282,0.695,0.331,1.765c0.061,1.587-0.601,2.993-1.267,3.91c-2.095-3.862-4.095-5.612-5.22-6.393C7.312,2.875,7,3.094,7,3.75c0,3.063-0.719,5.188-1.281,7.017c-0.407,1.265-1.645,3.085-1.558,3.685c0.087,0.599,1.057,1.574,1.392,2.055c-0.136-0.096-0.579,0.29-0.496,0.599c-0.556,0.328-0.447,0.813,0.063,0.982c0.162,0.405,0.3,0.426,0.75,0.612C5.783,19.555,5.625,20.047,5.625,21c-0.083,2.542,4.03-0.57,4.937-0.844c2.507-0.755,2.808,1.169,4.302,1.684c2.515,0.867,2.161-3.847,0.136-8.864c-0.239-3.223,0.479-4.287,1.454-4.919c0.39-0.253,0.772-0.358,1.546-0.14c1.211,0.307,1.301-1.178,0.115-1.359c-0.451-0.069-0.516-0.052-0.584-0.081C17.751,6.07,18.293,5.512,18.952,5.421z M7.965,8.737C8.33,8.141,9.251,7.896,10,8c1.125,0.156,1.563,1.063,1.001,1.977C10.47,10.842,8.982,11,8.263,10.632C7.591,10.287,7.632,9.281,7.965,8.737z M5.707,16.552l0.01-0.012c0,0.001,0,0.002,0,0.002L5.707,16.552z M6.228,15.445c-0.222-0.182-0.44-0.617-0.499-0.844c0.101-0.214,0.404-0.754,0.646-1.163C6.397,14.21,6.314,15.168,6.228,15.445z M14.997,18.977c0.109,1.425-1.493-0.235-2.028-0.539c-1.422-0.81-3.188-0.148-4.184,0.714c-0.691,0.599-1.382,0.917-1.254-0.433c0.063-0.656,0.2-1.284,0.281-2.375C7.937,14.656,8,12.813,8,11.875c0,0,0.442,0.104,1,0.125c1.78,0.067,2.689-0.664,2.997-1.023C13.199,13.192,14.767,15.985,14.997,18.977z"/></g></svg>