<svg width="19" height="18" viewBox="0 0 19 18" fill="none" xmlns="http://www.w3.org/2000/svg">
<path d="M12.5222 1.05874C12.5463 0.980279 12.5548 0.89783 12.547 0.816104C12.5393 0.734377 12.5156 0.654975 12.4771 0.582429C12.4387 0.509883 12.3864 0.445615 12.3231 0.393294C12.2599 0.340973 12.1869 0.301625 12.1085 0.277494C12.03 0.253364 11.9475 0.244925 11.8658 0.252658C11.7841 0.260392 11.7047 0.284147 11.6321 0.322567C11.5596 0.360987 11.4953 0.41332 11.443 0.476578C11.3907 0.539836 11.3513 0.612779 11.3272 0.691244L6.3272 16.9412C6.27847 17.0997 6.29468 17.271 6.37227 17.4176C6.44987 17.5641 6.58248 17.6738 6.74095 17.7225C6.89942 17.7712 7.07075 17.755 7.21727 17.6774C7.36378 17.5998 7.47347 17.4672 7.5222 17.3087L12.5222 1.05874ZM5.4922 4.18249C5.55041 4.24055 5.59658 4.30952 5.62809 4.38545C5.6596 4.46138 5.67582 4.54279 5.67582 4.62499C5.67582 4.7072 5.6596 4.7886 5.62809 4.86454C5.59658 4.94047 5.55041 5.00944 5.4922 5.06749L1.55845 8.99999L5.4922 12.9325C5.60956 13.0499 5.67549 13.209 5.67549 13.375C5.67549 13.541 5.60956 13.7001 5.4922 13.8175C5.37484 13.9349 5.21567 14.0008 5.0497 14.0008C4.88373 14.0008 4.72456 13.9349 4.6072 13.8175L0.232201 9.44249C0.173997 9.38444 0.127819 9.31547 0.0963105 9.23954C0.0648025 9.1636 0.048584 9.0822 0.048584 8.99999C0.048584 8.91778 0.0648025 8.83638 0.0963105 8.76045C0.127819 8.68452 0.173997 8.61555 0.232201 8.55749L4.6072 4.18249C4.66526 4.12429 4.73423 4.07811 4.81016 4.0466C4.88609 4.0151 4.96749 3.99888 5.0497 3.99888C5.13191 3.99888 5.21331 4.0151 5.28924 4.0466C5.36518 4.07811 5.43414 4.12429 5.4922 4.18249ZM13.3572 4.18249C13.299 4.24055 13.2528 4.30952 13.2213 4.38545C13.1898 4.46138 13.1736 4.54279 13.1736 4.62499C13.1736 4.7072 13.1898 4.7886 13.2213 4.86454C13.2528 4.94047 13.299 5.00944 13.3572 5.06749L17.291 8.99999L13.3572 12.9325C13.2991 12.9906 13.253 13.0596 13.2215 13.1355C13.1901 13.2114 13.1739 13.2928 13.1739 13.375C13.1739 13.4572 13.1901 13.5386 13.2215 13.6145C13.253 13.6904 13.2991 13.7594 13.3572 13.8175C13.4153 13.8756 13.4843 13.9217 13.5602 13.9531C13.6361 13.9846 13.7175 14.0008 13.7997 14.0008C13.8819 14.0008 13.9633 13.9846 14.0392 13.9531C14.1151 13.9217 14.1841 13.8756 14.2422 13.8175L18.6172 9.44249C18.6754 9.38444 18.7216 9.31547 18.7531 9.23954C18.7846 9.1636 18.8008 9.0822 18.8008 8.99999C18.8008 8.91778 18.7846 8.83638 18.7531 8.76045C18.7216 8.68452 18.6754 8.61555 18.6172 8.55749L14.2422 4.18249C14.1841 4.12429 14.1152 4.07811 14.0392 4.0466C13.9633 4.0151 13.8819 3.99888 13.7997 3.99888C13.7175 3.99888 13.6361 4.0151 13.5602 4.0466C13.4842 4.07811 13.4153 4.12429 13.3572 4.18249Z" fill="black"/>
</svg>
