<svg width="22" height="21" viewBox="0 0 22 21" fill="none" xmlns="http://www.w3.org/2000/svg">
<g clip-path="url(#clip0_3569_433)">
<path d="M20.0366 10.2258C18.0707 6.59162 14.6232 4.39246 10.8082 4.39246C6.99322 4.39246 3.53989 6.59162 1.59156 10.2258L1.42822 10.5L1.57989 10.78C3.54572 14.4141 6.99322 16.6133 10.8082 16.6133C14.6232 16.6133 18.0766 14.4433 20.0366 10.78L20.1882 10.5L20.0366 10.2258ZM10.8082 15.4175C7.52406 15.4175 4.50822 13.5858 2.75822 10.5C4.50822 7.41412 7.52406 5.58246 10.8082 5.58246C14.0924 5.58246 17.0732 7.41996 18.8524 10.5C17.0732 13.5858 14.0866 15.4175 10.8082 15.4175Z" fill="black"/>
<path d="M10.9773 6.51585C10.1864 6.52163 9.41493 6.76166 8.76034 7.20563C8.10575 7.64961 7.59741 8.27761 7.29953 9.01033C7.00164 9.74304 6.92758 10.5476 7.08668 11.3224C7.24579 12.0972 7.63093 12.8074 8.19347 13.3634C8.756 13.9195 9.4707 14.2963 10.2473 14.4464C11.0239 14.5965 11.8275 14.513 12.5567 14.2066C13.2859 13.9002 13.9079 13.3846 14.3443 12.7249C14.7806 12.0652 15.0116 11.291 15.0082 10.5C15.0059 9.97353 14.8997 9.45266 14.6958 8.96726C14.4918 8.48187 14.1941 8.0415 13.8196 7.67138C13.4452 7.30126 13.0014 7.00868 12.5136 6.81039C12.0259 6.6121 11.5038 6.51201 10.9773 6.51585ZM10.9773 13.3525C10.4187 13.3468 9.87413 13.1761 9.41215 12.8618C8.95017 12.5476 8.59134 12.1039 8.38072 11.5864C8.1701 11.0689 8.11709 10.5007 8.22834 9.95317C8.33959 9.40565 8.61014 8.9032 9.00602 8.50894C9.40189 8.11467 9.90544 7.84617 10.4534 7.73716C11.0014 7.62814 11.5694 7.68348 12.086 7.89621C12.6026 8.10894 13.0449 8.46958 13.3572 8.93284C13.6695 9.3961 13.838 9.94132 13.8415 10.5C13.8431 10.876 13.77 11.2486 13.6264 11.5962C13.4829 11.9437 13.2718 12.2593 13.0054 12.5247C12.7389 12.79 12.4225 12.9998 12.0744 13.1419C11.7262 13.284 11.3534 13.3556 10.9773 13.3525Z" fill="black"/>
</g>
<defs>
<clipPath id="clip0_3569_433">
<rect width="21" height="21" fill="white" transform="translate(0.424805)"/>
</clipPath>
</defs>
</svg>
